# Blender v2.92.0 OBJ File: ''
# www.blender.org
o Cylinder.001
v -0.084814 -0.000000 -1.000000
v -0.084814 -0.195090 -0.980785
v -0.084814 -0.382683 -0.923880
v -0.084814 -0.555570 -0.831470
v -0.084814 -0.707107 -0.707107
v -0.084814 -0.831470 -0.555570
v -0.084814 -0.923880 -0.382683
v -0.084814 -0.980785 -0.195090
v -0.084814 -1.000000 -0.000000
v -0.084814 -0.980785 0.195090
v -0.084814 -0.923880 0.382683
v -0.084814 -0.831470 0.555570
v -0.084814 -0.707107 0.707107
v -0.084814 -0.555570 0.831470
v -0.084814 -0.382683 0.923880
v -0.084814 -0.195090 0.980785
v -0.084814 0.000000 1.000000
v -0.084814 0.195091 0.980785
v -0.084814 0.382684 0.923879
v -0.084814 0.555571 0.831469
v -0.084814 0.707107 0.707106
v -0.084814 0.831470 0.555570
v -0.084814 0.923880 0.382683
v -0.084814 0.980785 0.195089
v -0.084814 1.000000 -0.000001
v -0.084814 0.980785 -0.195091
v -0.084814 0.923879 -0.382684
v -0.084814 0.831469 -0.555571
v -0.084814 0.707106 -0.707108
v -0.084814 0.555569 -0.831470
v -0.084814 0.382682 -0.923880
v -0.084814 0.195089 -0.980786
v -0.084814 0.000000 -0.813681
v -0.084814 -0.158741 -0.798047
v -0.084814 -0.311382 -0.751743
v -0.084814 -0.452057 -0.676551
v -0.084814 -0.575360 -0.575360
v -0.084814 -0.676551 -0.452057
v -0.084814 -0.751743 -0.311382
v -0.084814 -0.798047 -0.158741
v -0.084814 -0.813681 -0.000000
v -0.084814 -0.798047 0.158741
v -0.084814 -0.751744 0.311382
v -0.084814 -0.676551 0.452057
v -0.084814 -0.575360 0.575360
v -0.084814 -0.452057 0.676551
v -0.084814 -0.311382 0.751744
v -0.084814 -0.158741 0.798047
v -0.084814 0.000000 0.813681
v -0.084814 0.158742 0.798047
v -0.084814 0.311383 0.751743
v -0.084814 0.452058 0.676551
v -0.084814 0.575360 0.575359
v -0.084814 0.676552 0.452057
v -0.084814 0.751744 0.311382
v -0.084814 0.798047 0.158741
v -0.084814 0.813681 -0.000001
v -0.084814 0.798046 -0.158742
v -0.084814 0.751743 -0.311383
v -0.084814 0.676551 -0.452058
v -0.084814 0.575359 -0.575360
v -0.084814 0.452056 -0.676552
v -0.084814 0.311381 -0.751744
v -0.084814 0.158740 -0.798047
v 0.084814 -0.195090 -0.980785
v 0.084814 0.000000 -1.000000
v 0.084814 -0.382683 -0.923880
v 0.084814 -0.555570 -0.831470
v 0.084814 -0.707107 -0.707107
v 0.084814 -0.831470 -0.555570
v 0.084814 -0.923880 -0.382683
v 0.084814 -0.980785 -0.195090
v 0.084814 -1.000000 -0.000000
v 0.084814 -0.980785 0.195090
v 0.084814 -0.923880 0.382683
v 0.084814 -0.831470 0.555570
v 0.084814 -0.707107 0.707107
v 0.084814 -0.555570 0.831470
v 0.084814 -0.382683 0.923880
v 0.084814 -0.195090 0.980785
v 0.084814 0.000000 1.000000
v 0.084814 0.195091 0.980785
v 0.084814 0.382684 0.923879
v 0.084814 0.555571 0.831469
v 0.084814 0.707107 0.707106
v 0.084814 0.831470 0.555570
v 0.084814 0.923880 0.382683
v 0.084814 0.980785 0.195089
v 0.084814 1.000000 -0.000001
v 0.084814 0.980785 -0.195091
v 0.084814 0.923879 -0.382684
v 0.084814 0.831469 -0.555571
v 0.084814 0.707106 -0.707108
v 0.084814 0.555569 -0.831470
v 0.084814 0.382682 -0.923880
v 0.084814 0.195089 -0.980786
v 0.084814 -0.158741 -0.798047
v 0.084814 0.000000 -0.813681
v 0.084814 -0.311382 -0.751743
v 0.084814 -0.452057 -0.676551
v 0.084814 -0.575360 -0.575360
v 0.084814 -0.676551 -0.452057
v 0.084814 -0.751743 -0.311382
v 0.084814 -0.798047 -0.158741
v 0.084814 -0.813681 -0.000000
v 0.084814 -0.798047 0.158741
v 0.084814 -0.751744 0.311382
v 0.084814 -0.676551 0.452057
v 0.084814 -0.575360 0.575360
v 0.084814 -0.452057 0.676551
v 0.084814 -0.311382 0.751744
v 0.084814 -0.158741 0.798047
v 0.084814 0.000000 0.813681
v 0.084814 0.158742 0.798047
v 0.084814 0.311383 0.751743
v 0.084814 0.452058 0.676551
v 0.084814 0.575360 0.575359
v 0.084814 0.676552 0.452057
v 0.084814 0.751744 0.311382
v 0.084814 0.798047 0.158741
v 0.084814 0.813681 -0.000001
v 0.084814 0.798046 -0.158742
v 0.084814 0.751743 -0.311383
v 0.084814 0.676551 -0.452058
v 0.084814 0.575359 -0.575360
v 0.084814 0.452056 -0.676552
v 0.084814 0.311381 -0.751744
v 0.084814 0.158740 -0.798047
vn -0.0000 -0.0000 -1.0000
vn 0.0000 -0.1951 -0.9808
vn 0.0000 -0.3827 -0.9239
vn 0.0000 -0.5556 -0.8315
vn 0.0000 -0.7071 -0.7071
vn 0.0000 -0.8315 -0.5556
vn 0.0000 -0.9239 -0.3827
vn 0.0000 -0.9808 -0.1951
vn 0.0000 -1.0000 -0.0000
vn 0.0000 -0.9808 0.1951
vn 0.0000 -0.9239 0.3827
vn 0.0000 -0.8315 0.5556
vn 0.0000 -0.7071 0.7071
vn 0.0000 -0.5556 0.8315
vn 0.0000 -0.3827 0.9239
vn 0.0000 -0.1951 0.9808
vn -0.0000 0.0000 1.0000
vn 0.0000 0.1951 0.9808
vn 0.0000 0.3827 0.9239
vn 0.0000 0.5556 0.8315
vn 0.0000 0.7071 0.7071
vn 0.0000 0.8315 0.5556
vn 0.0000 0.9239 0.3827
vn 0.0000 0.9808 0.1951
vn 0.0000 1.0000 -0.0000
vn 0.0000 0.9808 -0.1951
vn 0.0000 0.9239 -0.3827
vn 0.0000 0.8315 -0.5556
vn 0.0000 0.7071 -0.7071
vn 0.0000 0.5556 -0.8315
vn 0.0000 0.3827 -0.9239
vn 0.0000 0.1951 -0.9808
vn -1.0000 -0.0000 0.0000
vn 1.0000 0.0000 -0.0000
s 1
f 66//1 2//2 1//1
f 65//2 3//3 2//2
f 67//3 4//4 3//3
f 68//4 5//5 4//4
f 69//5 6//6 5//5
f 70//6 7//7 6//6
f 71//7 8//8 7//7
f 72//8 9//9 8//8
f 73//9 10//10 9//9
f 74//10 11//11 10//10
f 75//11 12//12 11//11
f 76//12 13//13 12//12
f 77//13 14//14 13//13
f 78//14 15//15 14//14
f 79//15 16//16 15//15
f 80//16 17//17 16//16
f 81//17 18//18 17//17
f 82//18 19//19 18//18
f 83//19 20//20 19//19
f 84//20 21//21 20//20
f 85//21 22//22 21//21
f 86//22 23//23 22//22
f 87//23 24//24 23//23
f 88//24 25//25 24//24
f 89//25 26//26 25//25
f 90//26 27//27 26//26
f 91//27 28//28 27//27
f 92//28 29//29 28//28
f 93//29 30//30 29//29
f 94//30 31//31 30//30
f 95//31 32//32 31//31
f 96//32 1//1 32//32
f 34//33 1//33 2//33
f 34//33 3//33 35//33
f 35//33 4//33 36//33
f 36//33 5//33 37//33
f 38//33 5//33 6//33
f 38//33 7//33 39//33
f 40//33 7//33 8//33
f 40//33 9//33 41//33
f 41//33 10//33 42//33
f 43//33 10//33 11//33
f 43//33 12//33 44//33
f 44//33 13//33 45//33
f 46//33 13//33 14//33
f 46//33 15//33 47//33
f 47//33 16//33 48//33
f 49//33 16//33 17//33
f 49//33 18//33 50//33
f 51//33 18//33 19//33
f 52//33 19//33 20//33
f 53//33 20//33 21//33
f 53//33 22//33 54//33
f 55//33 22//33 23//33
f 55//33 24//33 56//33
f 57//33 24//33 25//33
f 57//33 26//33 58//33
f 59//33 26//33 27//33
f 60//33 27//33 28//33
f 60//33 29//33 61//33
f 61//33 30//33 62//33
f 63//33 30//33 31//33
f 63//33 32//33 64//33
f 33//33 32//33 1//33
f 97//34 66//34 98//34
f 128//16 33//17 98//17
f 127//15 64//16 128//16
f 126//14 63//15 127//15
f 125//13 62//14 126//14
f 124//12 61//13 125//13
f 123//11 60//12 124//12
f 122//10 59//11 123//11
f 121//9 58//10 122//10
f 120//8 57//9 121//9
f 119//7 56//8 120//8
f 118//6 55//7 119//7
f 117//5 54//6 118//6
f 116//4 53//5 117//5
f 115//3 52//4 116//4
f 114//2 51//3 115//3
f 113//1 50//2 114//2
f 112//32 49//1 113//1
f 111//31 48//32 112//32
f 110//30 47//31 111//31
f 109//29 46//30 110//30
f 108//28 45//29 109//29
f 107//27 44//28 108//28
f 106//26 43//27 107//27
f 105//25 42//26 106//26
f 104//24 41//25 105//25
f 103//23 40//24 104//24
f 102//22 39//23 103//23
f 101//21 38//22 102//22
f 100//20 37//21 101//21
f 99//19 36//20 100//20
f 97//18 35//19 99//19
f 98//17 34//18 97//18
f 67//34 97//34 99//34
f 68//34 99//34 100//34
f 69//34 100//34 101//34
f 102//34 69//34 101//34
f 71//34 102//34 103//34
f 72//34 103//34 104//34
f 73//34 104//34 105//34
f 106//34 73//34 105//34
f 75//34 106//34 107//34
f 108//34 75//34 107//34
f 77//34 108//34 109//34
f 110//34 77//34 109//34
f 79//34 110//34 111//34
f 112//34 79//34 111//34
f 113//34 80//34 112//34
f 82//34 113//34 114//34
f 115//34 82//34 114//34
f 84//34 115//34 116//34
f 117//34 84//34 116//34
f 86//34 117//34 118//34
f 119//34 86//34 118//34
f 88//34 119//34 120//34
f 121//34 88//34 120//34
f 90//34 121//34 122//34
f 91//34 122//34 123//34
f 124//34 91//34 123//34
f 93//34 124//34 125//34
f 94//34 125//34 126//34
f 127//34 94//34 126//34
f 96//34 127//34 128//34
f 98//34 96//34 128//34
f 66//1 65//2 2//2
f 65//2 67//3 3//3
f 67//3 68//4 4//4
f 68//4 69//5 5//5
f 69//5 70//6 6//6
f 70//6 71//7 7//7
f 71//7 72//8 8//8
f 72//8 73//9 9//9
f 73//9 74//10 10//10
f 74//10 75//11 11//11
f 75//11 76//12 12//12
f 76//12 77//13 13//13
f 77//13 78//14 14//14
f 78//14 79//15 15//15
f 79//15 80//16 16//16
f 80//16 81//17 17//17
f 81//17 82//18 18//18
f 82//18 83//19 19//19
f 83//19 84//20 20//20
f 84//20 85//21 21//21
f 85//21 86//22 22//22
f 86//22 87//23 23//23
f 87//23 88//24 24//24
f 88//24 89//25 25//25
f 89//25 90//26 26//26
f 90//26 91//27 27//27
f 91//27 92//28 28//28
f 92//28 93//29 29//29
f 93//29 94//30 30//30
f 94//30 95//31 31//31
f 95//31 96//32 32//32
f 96//32 66//1 1//1
f 34//33 33//33 1//33
f 34//33 2//33 3//33
f 35//33 3//33 4//33
f 36//33 4//33 5//33
f 38//33 37//33 5//33
f 38//33 6//33 7//33
f 40//33 39//33 7//33
f 40//33 8//33 9//33
f 41//33 9//33 10//33
f 43//33 42//33 10//33
f 43//33 11//33 12//33
f 44//33 12//33 13//33
f 46//33 45//33 13//33
f 46//33 14//33 15//33
f 47//33 15//33 16//33
f 49//33 48//33 16//33
f 49//33 17//33 18//33
f 51//33 50//33 18//33
f 52//33 51//33 19//33
f 53//33 52//33 20//33
f 53//33 21//33 22//33
f 55//33 54//33 22//33
f 55//33 23//33 24//33
f 57//33 56//33 24//33
f 57//33 25//33 26//33
f 59//33 58//33 26//33
f 60//33 59//33 27//33
f 60//33 28//33 29//33
f 61//33 29//33 30//33
f 63//33 62//33 30//33
f 63//33 31//33 32//33
f 33//33 64//33 32//33
f 97//34 65//34 66//34
f 128//16 64//16 33//17
f 127//15 63//15 64//16
f 126//14 62//14 63//15
f 125//13 61//13 62//14
f 124//12 60//12 61//13
f 123//11 59//11 60//12
f 122//10 58//10 59//11
f 121//9 57//9 58//10
f 120//8 56//8 57//9
f 119//7 55//7 56//8
f 118//6 54//6 55//7
f 117//5 53//5 54//6
f 116//4 52//4 53//5
f 115//3 51//3 52//4
f 114//2 50//2 51//3
f 113//1 49//1 50//2
f 112//32 48//32 49//1
f 111//31 47//31 48//32
f 110//30 46//30 47//31
f 109//29 45//29 46//30
f 108//28 44//28 45//29
f 107//27 43//27 44//28
f 106//26 42//26 43//27
f 105//25 41//25 42//26
f 104//24 40//24 41//25
f 103//23 39//23 40//24
f 102//22 38//22 39//23
f 101//21 37//21 38//22
f 100//20 36//20 37//21
f 99//19 35//19 36//20
f 97//18 34//18 35//19
f 98//17 33//17 34//18
f 67//34 65//34 97//34
f 68//34 67//34 99//34
f 69//34 68//34 100//34
f 102//34 70//34 69//34
f 71//34 70//34 102//34
f 72//34 71//34 103//34
f 73//34 72//34 104//34
f 106//34 74//34 73//34
f 75//34 74//34 106//34
f 108//34 76//34 75//34
f 77//34 76//34 108//34
f 110//34 78//34 77//34
f 79//34 78//34 110//34
f 112//34 80//34 79//34
f 113//34 81//34 80//34
f 82//34 81//34 113//34
f 115//34 83//34 82//34
f 84//34 83//34 115//34
f 117//34 85//34 84//34
f 86//34 85//34 117//34
f 119//34 87//34 86//34
f 88//34 87//34 119//34
f 121//34 89//34 88//34
f 90//34 89//34 121//34
f 91//34 90//34 122//34
f 124//34 92//34 91//34
f 93//34 92//34 124//34
f 94//34 93//34 125//34
f 127//34 95//34 94//34
f 96//34 95//34 127//34
f 98//34 66//34 96//34
